<?xml version="1.0" standalone="no"?>
<!DOCTYPE svg PUBLIC "-//W3C//DTD SVG 20010904//EN"
 "http://www.w3.org/TR/2001/REC-SVG-20010904/DTD/svg10.dtd">
<svg version="1.0" xmlns="http://www.w3.org/2000/svg"
 width="344.000000pt" height="344.000000pt" viewBox="0 0 344.000000 344.000000"
 preserveAspectRatio="xMidYMid meet">
<metadata>
Created by potrace 1.11, written by Peter Selinger 2001-2013
</metadata>
<g transform="translate(0.000000,344.000000) scale(0.100000,-0.100000)"
fill="#000000" stroke="none">
<path d="M0 1720 l0 -1720 1720 0 1720 0 0 1720 0 1720 -1720 0 -1720 0 0
-1720z m388 437 c17 -20 -18 -479 -64 -824 -6 -46 -29 -63 -53 -39 -13 14 -12
39 12 233 15 120 32 279 37 353 10 132 28 267 37 283 6 11 19 9 31 -6z m2722
-36 c19 -36 10 -53 -65 -126 -41 -41 -75 -76 -75 -79 0 -3 20 -6 45 -6 134 0
200 -212 121 -386 -32 -70 -66 -108 -121 -136 -35 -18 -52 -20 -151 -16 -93 4
-119 9 -155 29 -41 22 -44 28 -44 64 0 34 4 41 22 43 12 2 34 -5 48 -14 20
-13 54 -19 133 -21 124 -5 151 6 199 78 52 78 42 227 -16 259 -29 15 -102 12
-152 -5 -42 -15 -45 -15 -62 6 -29 36 -7 77 98 188 50 53 56 63 35 58 -14 -3
-60 -11 -103 -18 -68 -11 -79 -11 -93 3 -30 30 -9 56 54 68 31 6 71 15 87 20
17 4 65 9 107 9 67 1 79 -2 88 -18z m-1476 -67 c-1 -71 -49 -388 -84 -550 -11
-50 -22 -142 -26 -205 -4 -63 -11 -122 -16 -131 -12 -24 -35 -23 -48 2 -14 26
4 255 30 369 10 47 34 176 53 286 35 205 57 280 79 272 8 -2 13 -20 12 -43z
m-742 -163 l-3 -101 66 0 c52 0 69 -4 85 -20 24 -24 24 -30 6 -56 -11 -15 -30
-20 -88 -24 l-73 -5 -6 -68 c-7 -81 -30 -116 -55 -82 -11 14 -13 35 -8 82 l7
63 -47 0 c-40 0 -48 4 -58 25 -16 35 1 51 62 59 l50 7 0 48 c0 61 17 150 32
168 25 31 33 6 30 -96z m1487 -85 c7 -8 11 -27 9 -43 l-3 -28 -116 -3 c-105
-2 -117 -1 -134 18 -15 17 -16 24 -7 45 11 25 14 25 126 25 87 0 116 -3 125
-14z m-8 -160 c17 -35 -3 -64 -49 -71 -20 -3 -61 -10 -90 -16 -62 -12 -85 -1
-80 39 3 28 43 46 133 61 75 13 75 13 86 -13z"/>
</g>
</svg>
