<?xml version="1.0" encoding="utf-8"?>
<!-- Generator: Adobe Illustrator 19.0.0, SVG Export Plug-In . SVG Version: 6.00 Build 0)  -->
<!DOCTYPE svg PUBLIC "-//W3C//DTD SVG 1.1//EN" "http://www.w3.org/Graphics/SVG/1.1/DTD/svg11.dtd">
<svg version="1.1" id="Layer_1" xmlns="http://www.w3.org/2000/svg" xmlns:xlink="http://www.w3.org/1999/xlink" x="0px" y="0px"
	 viewBox="0 0 105 144" enable-background="new 0 0 105 144" xml:space="preserve">
<g>
	<g>
		<path fill="#754C29" d="M23.8,141v-8.8h3.9l1.4,6h0l1.4-6h3.8v8.8h-2.1v-7.4l0,0l-2.1,7.4h-2.2l-1.9-7.5l0,0v7.5H23.8z"/>
		<path fill="#754C29" d="M39,141v-8.8h6.7v1.7h-4.3v1.8h3.9v1.7h-3.9v1.9h4.3v1.7H39z"/>
		<path fill="#754C29" d="M52.7,133.9H50v-1.7h7.9v1.7h-2.8v7.1h-2.5V133.9z"/>
		<path fill="#754C29" d="M60.7,141l3.5-8.8h3l3.5,8.8h-2.8l-0.6-1.7h-3.6l-0.6,1.7H60.7z M66.7,137.6l-1.1-3.7h0l-1.2,3.7H66.7z"/>
		<path fill="#754C29" d="M74.9,141v-8.8h2.5v7.1h4v1.7H74.9z"/>
	</g>
	<g>
		<path fill="#754C29" d="M5.5,111.4h2.2v5.6H13v-5.6h2.2v13.8H13v-6.1H7.6v6.1H5.5V111.4z"/>
		<path fill="#754C29" d="M22.4,111.3h2.3l4.3,13.9h-2.2l-0.8-2.6h-4.9l-0.8,2.6h-2.1L22.4,111.3z M25.5,120.7l-1.9-6.3l-1.9,6.3
			H25.5z"/>
		<path fill="#754C29" d="M36.6,120.2h-2.3v5.1h-2.1v-13.8H37c3,0,4.3,1.4,4.3,4.2c0,2.2-0.7,3.7-2.5,4.3l2.4,5.3h-2.3L36.6,120.2z
			 M37,118.2c1.5,0,2.2-0.7,2.2-2.4c0-1.8-0.7-2.4-2.2-2.4h-2.7v4.9H37z"/>
		<path fill="#754C29" d="M49.5,120.2h-2.3v5.1H45v-13.8h4.9c3,0,4.3,1.4,4.3,4.2c0,2.2-0.7,3.7-2.5,4.3l2.4,5.3h-2.3L49.5,120.2z
			 M49.8,118.2c1.5,0,2.2-0.7,2.2-2.4c0-1.8-0.7-2.4-2.2-2.4h-2.7v4.9H49.8z"/>
		<path fill="#754C29" d="M57.7,111.4h2.2v13.8h-2.2V111.4z"/>
		<path fill="#754C29" d="M63.1,124.3l1.1-1.7c0.7,0.4,1.9,1,3.6,1c1.7,0,2.5-0.7,2.5-1.9c0-1.5-0.8-1.8-3-2.7
			c-2.4-0.9-3.6-1.8-3.6-4c0-2.4,1.5-3.8,4.4-3.8c1.7,0,2.8,0.3,3.8,0.8l-0.9,1.8c-0.7-0.3-1.6-0.6-2.9-0.6c-1.6,0-2.3,0.6-2.3,1.7
			c0,1.2,0.6,1.5,2.4,2.3c3,1.2,4.1,1.9,4.1,4.4c0,2.3-1.5,3.8-4.5,3.8C65.7,125.4,64.2,124.9,63.1,124.3z"/>
		<path fill="#754C29" d="M75.3,118.4c0-3.8,0.7-7.1,5.4-7.1c4.7,0,5.4,3.3,5.4,7.1c0,3.8-0.7,7.1-5.4,7.1
			C76,125.4,75.3,122.2,75.3,118.4z M83.9,118.4c0-2.9-0.3-5.1-3.2-5.1c-2.9,0-3.2,2.1-3.2,5.1c0,3,0.3,5.1,3.2,5.1
			C83.6,123.5,83.9,121.4,83.9,118.4z"/>
		<path fill="#754C29" d="M89.7,111.4H92l5.3,9.5v-9.5h2.1v13.8h-2l-5.6-10v10h-2.1V111.4z"/>
	</g>
	<g>
		<path fill="#754C29" d="M52.4,7C27.4,7,7,27.4,7,52.5C7,77.6,27.4,98,52.4,98c25.1,0,45.5-20.4,45.5-45.5C97.9,27.4,77.5,7,52.4,7
			z M52.4,96.3c-24.1,0-43.8-19.6-43.8-43.8c0-24.1,19.6-43.8,43.8-43.8c24.1,0,43.8,19.6,43.8,43.8C96.2,76.6,76.6,96.3,52.4,96.3z
			"/>
		<path fill="#754C29" d="M52.4,2.9C25.1,2.9,2.8,25.1,2.8,52.5c0,27.4,22.3,49.6,49.6,49.6c27.4,0,49.6-22.3,49.6-49.6
			C102.1,25.1,79.8,2.9,52.4,2.9z M52.4,100.4C26,100.4,4.5,78.9,4.5,52.5C4.5,26.1,26,4.6,52.4,4.6c26.4,0,47.9,21.5,47.9,47.9
			C100.4,78.9,78.9,100.4,52.4,100.4z"/>
		<path fill="#754C29" d="M77.9,35.5c-0.3-0.3-0.9-0.3-1.2,0L76.1,36l-2-2l1.2-1.2c0.3-0.3,0.3-0.9,0-1.2l-8.1-8.1
			c-3.6-3.6-7.8-5-12.3-4.2c-0.4,0.1-0.7,0.4-0.7,0.9l0,4c0,0.2,0.1,0.4,0.3,0.6c0.2,0.2,0.4,0.3,0.6,0.2c2.1,0,3.6,0,5,0.7
			c0,0,0.1,0,0.1,0c0.2,0.1,0.4,0.2,0.5,0.4c0.7,0.7,0.7,1.9,0,2.6l-2.9,2.9c-0.2,0.2-0.3,0.4-0.3,0.6c0,0.2,0.1,0.4,0.3,0.6
			l0.7,0.7l-6.6,6.6L45,33c0.1-0.5,0.1-1,0.1-1.4c0-4.4-3.6-8-8-8c-1.2,0-2.4,0.3-3.5,0.8c-0.3,0.1-0.4,0.4-0.5,0.6
			c0,0.3,0,0.6,0.2,0.8l4,4c-0.1,0.2-0.3,0.7-0.9,1.3c-0.6,0.6-1.1,0.8-1.3,0.9l-4-4c-0.2-0.2-0.5-0.3-0.8-0.2
			c-0.3,0-0.5,0.2-0.6,0.5c-0.5,1.1-0.8,2.3-0.8,3.5c0,4.4,3.6,8,8,8c0.4,0,1-0.1,1.5-0.2l7.1,7.1c-3.2,4-3.1,9.7,0,13.6l-7.1,7.1
			c-0.5-0.1-1-0.1-1.5-0.1c-4.4,0-8,3.6-8,8c0,4.4,3.6,8,8,8c4.4,0,8-3.6,8-8c0-0.5,0-1-0.1-1.5l7.1-7.1l7.1,7.1
			c-0.1,0.5-0.1,1-0.1,1.5c0,4.4,3.6,8,8,8s8-3.6,8-8c0-4.4-3.6-8-8-8c-0.5,0-1,0-1.5,0.1l-7.1-7.1c3.2-4,3.1-9.7,0-13.6l6.6-6.6
			l0.9,0.9c0.2,0.2,0.4,0.3,0.6,0.3c0.2,0,0.4-0.1,0.6-0.3l1.2-1.2l2,2l-0.5,0.5c-0.2,0.2-0.2,0.4-0.2,0.6c0,0.2,0.1,0.4,0.2,0.6
			l2.9,2.9c0.2,0.2,0.4,0.3,0.6,0.3c0.2,0,0.4-0.1,0.6-0.3l6.7-6.8c0.3-0.3,0.3-0.9,0-1.2L77.9,35.5z M62,24.8
			c-0.3-0.3-0.7-0.6-1.2-0.8c0,0,0,0,0,0c-1.5-0.7-3-0.8-4.8-0.8l0-2.4c3.4-0.4,6.6,0.7,9.4,3.3L63,26.5
			C62.8,25.9,62.5,25.3,62,24.8z M43.4,72.9c-0.2,0.2-0.3,0.5-0.2,0.8c0.1,0.5,0.2,1,0.2,1.5c0,3.5-2.8,6.3-6.3,6.3
			c-3.5,0-6.3-2.8-6.3-6.3c0-3.5,2.8-6.3,6.3-6.3c0.5,0,1,0.1,1.5,0.2c0.3,0.1,0.6,0,0.8-0.2l7.4-7.4l4,4L43.4,72.9z M65.5,69.2
			c0.5-0.1,1-0.2,1.5-0.2c3.5,0,6.3,2.8,6.3,6.3c0,3.5-2.8,6.3-6.3,6.3c-3.5,0-6.3-2.8-6.3-6.3c0-0.5,0.1-1,0.2-1.5
			c0.1-0.3,0-0.6-0.2-0.8L47.8,60.1c-3.3-3.3-3.7-8.5-0.9-12.2L51,52c-0.6,1.3-0.3,3,0.7,4.1l13,12.9C64.9,69.1,65.2,69.2,65.5,69.2
			z M57.2,59.1l-4.1-4.1c0.6-1.4,0.4-3-0.7-4.1L39.4,38c-0.2-0.2-0.5-0.3-0.8-0.2c-0.7,0.1-1.3,0.2-1.6,0.2c-3.5,0-6.3-2.8-6.3-6.3
			c0-0.5,0.1-1,0.2-1.5l3.2,3.2c0.8,0.8,2.2,0.4,3.6-1c1.4-1.4,1.8-2.8,1-3.6l-3.2-3.2c0.5-0.1,1-0.2,1.5-0.2c3.5,0,6.3,2.8,6.3,6.3
			c0,0.5-0.1,1-0.2,1.5c-0.1,0.3,0,0.6,0.2,0.8l12.9,12.9C59.7,50.2,60,55.4,57.2,59.1z M57.3,45.3l-4-4l6.6-6.6l4,4L57.3,45.3z
			 M66.6,39.1l-6.9-6.9l2.3-2.3l0,0c0,0,0,0,0,0l4.6-4.6l6.9,6.9L66.6,39.1z M69.7,38.5l3.3-3.3l2,2l-3.2,3.3L69.7,38.5z M73.4,44.5
			l-1.7-1.7l5.5-5.5L79,39L73.4,44.5z"/>
		<path fill="#754C29" d="M65.7,78.5c0.2,0.2,0.4,0.3,0.6,0.3c0.1,0,0.1,0,0.2,0l2.6-0.7c0.3-0.1,0.5-0.3,0.6-0.6l0.7-2.6
			c0.1-0.3,0-0.6-0.2-0.8l-1.9-1.9c-0.2-0.2-0.5-0.3-0.8-0.2L65,72.6c-0.3,0.1-0.5,0.3-0.6,0.6l-0.7,2.6c-0.1,0.3,0,0.6,0.2,0.8
			L65.7,78.5z M65.9,74.1l1.6-0.4l1.2,1.2l-0.4,1.6l-1.6,0.4l-1.2-1.2L65.9,74.1z"/>
		<path fill="#754C29" d="M39.8,73.2c-0.1-0.3-0.3-0.5-0.6-0.6l-2.6-0.7c-0.3-0.1-0.6,0-0.8,0.2L33.9,74c-0.2,0.2-0.3,0.5-0.2,0.8
			l0.7,2.6c0.1,0.3,0.3,0.5,0.6,0.6l2.6,0.7c0.1,0,0.1,0,0.2,0c0.2,0,0.4-0.1,0.6-0.3l1.9-1.9c0.2-0.2,0.3-0.5,0.2-0.8L39.8,73.2z
			 M37.5,76.9l-1.6-0.4l-0.4-1.6l1.2-1.2l1.6,0.4l0.4,1.6L37.5,76.9z"/>
	</g>
</g>
</svg>
